<svg xmlns="http://www.w3.org/2000/svg" width="25" height="25" viewBox="0 0 20 20"><g fill="none" fill-rule="evenodd"><path fill="#AAB7C4" d="M10.002 18.004a8.002 8.002 0 1 1 0-16.004c.455 0 .9.047 1.334.12V7h1.666v1.668h4.882c.073.435.12.88.12 1.334a8.002 8.002 0 0 1-8.002 8.002zm1.992-6.01H8.348a.34.34 0 0 1-.34-.34v-3.64h-2.44a.338.338 0 0 0-.24.1l-2.23 2.23a6.905 6.905 0 0 0 6.57 6.563l2.227-2.228c.063-.063.1-.15.1-.24v-2.447l-.001.002z"/><path fill="#424770" d="M17.886 8.686l-3.206 3.208a.338.338 0 0 1-.24.1h-2.446V8.352a.338.338 0 0 0-.338-.338H8.009V5.559a.34.34 0 0 1 .1-.24l3.2-3.203a7.993 7.993 0 0 1 6.577 6.57z"/></g></svg>